<svg width="48" height="48" viewBox="0 0 48 48" fill="none" xmlns="http://www.w3.org/2000/svg">
<rect width="48" height="48" rx="10" fill="url(#paint0_linear_52_13)"/>
<g clip-path="url(#clip0_52_13)">
<path d="M38.5392 20.4679H14.3091L37.194 12.508C37.352 12.453 37.4816 12.3376 37.5544 12.1871C37.6272 12.0366 37.6373 11.8633 37.5824 11.7053L35.7452 6.42354C35.6308 6.09466 35.2714 5.9208 34.9425 6.03514L8.5328 15.2211C8.20392 15.3355 8.03006 15.6948 8.1444 16.0237L9.10372 18.7824C8.3391 19.2705 7.83057 20.126 7.83057 21.0985C7.83057 22.3959 8.73515 23.4854 9.9466 23.7711V40.3696C9.9466 40.7178 10.2288 41.0001 10.5771 41.0001H38.5391C38.8874 41.0001 39.1696 40.7178 39.1696 40.3696V21.0984C39.1697 20.7502 38.8874 20.4679 38.5392 20.4679ZM13.2498 21.7289H14.6472L11.2076 25.1685V23.7711C12.2165 23.5331 13.0119 22.7377 13.2498 21.7289ZM25.9694 15.077L22.3717 16.3284L25.0396 10.8147L28.6373 9.56337L25.9694 15.077ZM30.3216 8.97757L33.9193 7.7262L31.2514 13.2398L27.6537 14.4912L30.3216 8.97757ZM20.6874 16.9142L17.0897 18.1656L19.7576 12.652L23.3553 11.4006L20.6874 16.9142ZM15.4054 18.7514L12.8934 19.6251C12.7344 19.3761 12.5369 19.1541 12.3084 18.9681L14.4756 14.4892L18.0733 13.2378L15.4054 18.7514ZM16.4307 21.7289H20.2397L15.9083 26.0603H12.0994L16.4307 21.7289ZM22.0231 21.7289H25.8321L21.5008 26.0603H17.6918L22.0231 21.7289ZM27.6156 21.7289H31.4245L27.0932 26.0603H23.2842L27.6156 21.7289ZM33.2079 21.7289H37.0168L32.6855 26.0603H28.8765L33.2079 21.7289ZM37.9086 22.6206V26.0603H34.469L37.9086 22.6206ZM36.1842 11.5241L32.9357 12.654L35.0542 8.27576L36.1842 11.5241ZM9.54256 16.2049L12.7913 15.075L11.1738 18.4178C10.9816 18.375 10.7821 18.3517 10.5771 18.3517C10.4816 18.3517 10.3872 18.3567 10.2941 18.3663L9.54256 16.2049ZM9.09161 21.0984C9.09161 20.2793 9.75803 19.6129 10.5771 19.6129C11.3962 19.6129 12.0626 20.2793 12.0626 21.0984C12.0626 21.9175 11.3962 22.5839 10.5771 22.5839C9.75803 22.5839 9.09161 21.9175 9.09161 21.0984ZM11.2076 39.739V27.3213H37.9085V39.739H11.2076Z" fill="white"/>
<path d="M20.1432 31.0888C20.254 31.3509 20.5344 31.5144 20.818 31.4709C21.0799 31.4308 21.2907 31.2297 21.3437 30.9702C21.3943 30.7226 21.2848 30.4632 21.0756 30.3229C20.8271 30.1563 20.4921 30.1948 20.2793 30.4011C20.1031 30.5827 20.0462 30.8534 20.1432 31.0888C20.1592 31.1266 20.1273 31.0501 20.1432 31.0888Z" fill="white"/>
<path d="M13.298 31.4778H18.6832C19.0315 31.4778 19.3137 31.1955 19.3137 30.8473C19.3137 30.499 19.0315 30.2167 18.6832 30.2167H13.298C12.9497 30.2167 12.6675 30.499 12.6675 30.8473C12.6675 31.1955 12.9497 31.4778 13.298 31.4778Z" fill="white"/>
<path d="M36.4984 30.2167H22.7277C22.3794 30.2167 22.0972 30.499 22.0972 30.8473C22.0972 31.1955 22.3794 31.4778 22.7277 31.4778H36.4984C36.8467 31.4778 37.129 31.1955 37.129 30.8473C37.129 30.499 36.8467 30.2167 36.4984 30.2167Z" fill="white"/>
<path d="M36.4988 34.6755H13.298C12.9497 34.6755 12.6675 34.9578 12.6675 35.3061C12.6675 35.6543 12.9497 35.9366 13.298 35.9366H36.4989C36.8472 35.9366 37.1294 35.6543 37.1294 35.3061C37.1294 34.9578 36.8471 34.6755 36.4988 34.6755Z" fill="white"/>
</g>
<defs>
<linearGradient id="paint0_linear_52_13" x1="0" y1="0" x2="48" y2="48" gradientUnits="userSpaceOnUse">
<stop stop-color="#8200DA"/>
<stop offset="0.25" stop-color="#8B07EA"/>
<stop offset="0.5" stop-color="#7430DB"/>
<stop offset="0.75" stop-color="#5D2CE0"/>
<stop offset="1" stop-color="#442CD7"/>
</linearGradient>
<clipPath id="clip0_52_13">
<rect width="35" height="35" fill="white" transform="translate(6 6)"/>
</clipPath>
</defs>
</svg>
